/vscmnt/brussel_pixiu_data/_data_brussel/112/vsc11236/PredSimResults/SUBJ09opt3D/weighted-LRposFixed/trackIG/worker_01.mot
version=1
nRows=6
nColumns=50
inDegrees=yes
endheader
                time	         pelvis_tilt	         pelvis_list	     pelvis_rotation	           pelvis_tx	           pelvis_ty	           pelvis_tz	       hip_flexion_r	     hip_adduction_r	      hip_rotation_r	        knee_angle_r	       ankle_angle_r	         mtp_angle_r	       hip_flexion_l	     hip_adduction_l	      hip_rotation_l	        knee_angle_l	       ankle_angle_l	         mtp_angle_l	    lumbar_extension	      lumbar_bending	     lumbar_rotation	 ercspn_r/activation	 intobl_r/activation	 extobl_r/activation	    abd_r/activation	    add_r/activation	hamstrings_r/activation	bifemsh_r/activation	glut_max_r/activation	iliopsoas_r/activation	rect_fem_r/activation	  vasti_r/activation	gastroc_r/activation	 soleus_r/activation	tib_ant_r/activation	 ercspn_l/activation	 intobl_l/activation	 extobl_l/activation	    abd_l/activation	    add_l/activation	hamstrings_l/activation	bifemsh_l/activation	glut_max_l/activation	iliopsoas_l/activation	rect_fem_l/activation	  vasti_l/activation	gastroc_l/activation	 soleus_l/activation	tib_ant_l/activation	
          1.28716361	         -4.09110491	         -0.82014196	          7.88244201	          1.53172470	          0.99010737	         -0.00231482	         28.52835581	         -1.52015733	         -8.50518506	         -6.18896982	          3.90733497	          0.24288228	        -13.80133011	         -2.35996849	         -5.28346768	        -10.27084296	          3.94167950	         36.77531409	        -13.47946155	         -1.46705610	         -7.33321288	          0.02749928	          0.15803946	          0.03330215	          0.01000006	          0.24187050	          0.05533325	          0.11923820	          0.08734575	          0.12530152	          0.01303862	          0.01000038	          0.01460121	          0.01000035	          0.32005913	          0.03032821	          0.01000020	          0.01000022	          0.02995949	          0.01214486	          0.01770395	          0.20588623	          0.01274562	          0.02928603	          0.01000085	          0.01000033	          0.30981560	          0.22203251	          0.01214568	
          1.30003525	         -4.13004714	         -0.93603293	          7.88124127	          1.55172532	          0.98790457	         -0.00154991	         28.43776487	         -1.35361352	         -8.66789748	         -7.96874033	          3.50452018	          0.20813924	        -14.41928478	         -2.70584943	         -5.72111000	        -11.05910790	          2.81286332	         38.37356033	        -12.95150030	         -1.00254325	         -7.51013137	          0.02264212	          0.13012429	          0.02741986	          0.06778025	          0.19914996	          0.06123215	          0.09817677	          0.12014844	          0.10316897	          0.01073561	          0.01000037	          0.01214598	          0.01214535	          0.35901076	          0.02497154	          0.01000014	          0.01000062	          0.02466762	          0.01000096	          0.01710420	          0.16952063	          0.01049442	          0.02411385	          0.01000050	          0.01000044	          0.28146059	          0.19928062	          0.01000035	
          1.31290688	         -4.14999027	         -1.06596317	          7.84750794	          1.57199600	          0.98602687	         -0.00069951	         28.23609820	         -1.17087599	         -8.84239432	         -9.59536019	          2.93971048	          0.20038296	        -14.83867284	         -3.09115660	         -6.17876489	        -12.24147391	          1.55091982	         39.91817380	        -12.40950990	         -0.52236573	         -7.65247969	          0.02089154	          0.10713988	          0.02257659	          0.12221161	          0.21118531	          0.05433628	          0.08083549	          0.14941068	          0.08494579	          0.01000015	          0.01000026	          0.01000067	          0.01000011	          0.40314962	          0.02344576	          0.01000005	          0.01000015	          0.02031048	          0.01000026	          0.01408351	          0.13957785	          0.01000008	          0.04117112	          0.01000053	          0.01000023	          0.23487728	          0.16851450	          0.01000003	
          1.32577852	         -4.15277474	         -1.19877882	          7.78152515	          1.59217653	          0.98467548	          0.00024977	         28.07229445	         -0.98598968	         -9.03578729	        -11.30609473	          2.38923071	          0.16782433	        -14.95777063	         -3.51343651	         -6.64930020	        -13.96075535	          0.19128515	         41.24821039	        -11.89656834	         -0.03896996	         -7.75820212	          0.02996343	          0.08821531	          0.01858880	          0.17186246	          0.24199115	          0.05404485	          0.06655725	          0.15053054	          0.06994146	          0.01000027	          0.07996043	          0.01000053	          0.01000040	          0.42515273	          0.07770573	          0.01000020	          0.01000012	          0.01672295	          0.02570377	          0.02903588	          0.11492390	          0.01000017	          0.03390028	          0.01000039	          0.01000044	          0.19338990	          0.13874908	          0.01000003	
          1.33865016	         -4.14060993	         -1.33576743	          7.69182085	          1.61203859	          0.98400539	          0.00128291	         27.96579718	         -0.79586964	         -9.20116348	        -13.16544876	          2.16334478	          0.12860579	        -14.70342497	         -3.98307772	         -7.13990118	        -16.31032758	         -1.23801136	         42.15011711	        -11.43331758	          0.44892371	         -7.83117865	          0.02641898	          0.07263346	          0.01530540	          0.19561848	          0.25836406	          0.05155134	          0.05480104	          0.17400397	          0.05758740	          0.01000025	          0.18037777	          0.01000050	          0.01000026	          0.42709761	          0.09297902	          0.01000025	          0.01000014	          0.01376911	          0.11572323	          0.03678172	          0.09462488	          0.01000005	          0.04609817	          0.01000017	          0.01000008	          0.15923061	          0.11424124	          0.01000010	
          1.35152179	         -4.11709795	         -1.46204348	          7.57709358	          1.63141286	          0.98415403	          0.00236376	         27.83486207	         -0.60158309	         -9.32706901	        -15.01309353	          2.30844995	          0.09539495	        -14.02237456	         -4.49173232	         -7.70322551	        -19.36197404	         -2.64184522	         42.21639729	        -11.03587977	          0.92671499	         -7.86840312	          0.02175987	          0.05980391	          0.01260197	          0.20096749	          0.28561219	          0.05461759	          0.04512139	          0.17707189	          0.04741549	          0.01000020	          0.21752293	          0.01000035	          0.01000017	          0.39476971	          0.09470339	          0.01000035	          0.01000015	          0.01133702	          0.17301772	          0.03599592	          0.07791143	          0.01000004	          0.03795680	          0.01000017	          0.01000006	          0.13110502	          0.09406232	          0.01000004	
